<?xml version="1.0" encoding="UTF-8" standalone="no"?>
<svg
   version="1.0"
   width="350pt"
   height="350pt"
   viewBox="0 0 300 300"
   preserveAspectRatio="xMidYMid"
   id="svg48"
   sodipodi:docname="github-icon.svg"
   inkscape:version="1.2.1 (9c6d41e, 2022-07-14)"
   xmlns:inkscape="http://www.inkscape.org/namespaces/inkscape"
   xmlns:sodipodi="http://sodipodi.sourceforge.net/DTD/sodipodi-0.dtd"
   xmlns="http://www.w3.org/2000/svg"
   xmlns:svg="http://www.w3.org/2000/svg">
  <defs
     id="defs52" />
  <sodipodi:namedview
     id="namedview50"
     pagecolor="#ffffff"
     bordercolor="#000000"
     borderopacity="0.25"
     inkscape:showpageshadow="2"
     inkscape:pageopacity="0.0"
     inkscape:pagecheckerboard="0"
     inkscape:deskcolor="#d1d1d1"
     inkscape:document-units="pt"
     showgrid="true"
     inkscape:zoom="0.66202114"
     inkscape:cx="544.54454"
     inkscape:cy="416.90512"
     inkscape:window-width="1916"
     inkscape:window-height="1041"
     inkscape:window-x="0"
     inkscape:window-y="18"
     inkscape:window-maximized="1"
     inkscape:current-layer="svg48">
    <sodipodi:guide
       position="0,350.00001"
       orientation="0,466.66667"
       id="guide214"
       inkscape:locked="false" />
    <sodipodi:guide
       position="350.00001,350.00001"
       orientation="466.66667,0"
       id="guide216"
       inkscape:locked="false" />
    <sodipodi:guide
       position="350.00001,0"
       orientation="0,-466.66667"
       id="guide218"
       inkscape:locked="false" />
    <sodipodi:guide
       position="0,0"
       orientation="-466.66667,0"
       id="guide220"
       inkscape:locked="false" />
  </sodipodi:namedview>
  <g
     transform="matrix(0.1,0,0,-0.1,-25.688631,369.38407)"
     fill="#fff"
     stroke="none"
     id="g46">
    <path
       d="m 1498,2913 c -8,-10 -108,-159 -221,-330 -113,-172 -210,-313 -215,-313 -4,0 -12,4 -17,9 -6,5 -37,19 -70,31 -88,33 -201,32 -278,-3 -73,-33 -142,-103 -189,-195 -113,-218 -49,-371 239,-572 89,-62 130,-74 164,-47 32,24 39,56 39,167 v 111 l 196,297 c 355,538 419,632 429,632 6,0 32,-22 59,-49 52,-53 54,-77 6,-66 -49,11 -121,-5 -147,-33 -22,-24 -23,-29 -23,-229 v -205 l 29,-29 29,-29 h 161 c 88,0 162,-3 165,-8 2,-4 -18,-44 -45,-89 l -50,-82 h -72 c -131,2 -237,-58 -290,-162 -59,-118 -53,-226 18,-338 14,-22 25,-43 25,-46 0,-3 -32,-5 -70,-5 -85,0 -121,-16 -144,-64 -20,-42 -20,-57 -1,-102 10,-26 26,-40 59,-55 44,-19 67,-19 1088,-17 1029,3 1043,3 1078,23 47,28 67,81 51,136 -17,57 -57,79 -144,79 h -69 l 22,33 c 49,74 64,119 64,202 0,92 -20,147 -75,209 -56,64 -116,95 -220,111 -31,5 -37,10 -48,45 -18,60 -40,70 -153,70 -99,0 -128,10 -128,46 0,12 36,14 221,14 223,0 249,4 276,39 9,11 12,76 13,223 0,204 0,207 -24,235 l -24,28 -639,3 -638,2 -170,170 c -165,164 -172,170 -211,170 -27,0 -46,-6 -56,-17 z m 1592,-587 c 0,-80 -1,-85 -22,-88 -13,-2 -339,-2 -725,0 l -703,2 v 78 c 0,43 3,82 7,85 3,4 330,7 725,7 h 718 z M 920,2144 c 22,-9 40,-22 40,-30 0,-8 -36,-68 -81,-134 -83,-124 -109,-175 -109,-210 0,-11 -4,-20 -8,-20 -17,0 -110,103 -127,140 -17,38 -17,40 5,95 29,71 72,130 113,155 40,25 111,26 167,4 z m 1630,-99 c 22,-27 4,-45 -45,-45 -62,0 -83,-13 -106,-65 -17,-38 -25,-45 -57,-50 -90,-15 -136,-38 -193,-94 -75,-74 -103,-145 -97,-246 5,-67 41,-163 68,-180 5,-3 10,-13 10,-21 0,-11 -21,-14 -110,-14 -63,0 -110,4 -110,10 0,5 11,25 24,45 63,93 72,215 23,315 -14,30 -32,62 -38,71 -10,13 2,38 61,140 40,68 79,130 88,137 12,9 76,12 243,12 188,0 229,-3 239,-15 z m 303,-221 c 4,-4 -8,-23 -25,-42 -39,-46 -76,-126 -84,-184 -9,-61 10,-135 52,-204 19,-31 34,-58 34,-60 0,-2 -52,-4 -115,-4 -63,0 -115,2 -115,4 0,2 15,29 34,59 77,129 64,279 -34,390 -16,19 -27,37 -23,41 8,8 268,8 276,0 z M 1747,1689 c 38,-24 73,-84 73,-126 0,-41 -40,-103 -80,-124 -124,-66 -256,65 -192,191 37,74 129,102 199,59 z m 691,1 c 68,-42 92,-132 52,-198 -94,-154 -329,-31 -250,132 38,80 126,110 198,66 z m 691,0 c 38,-19 81,-86 81,-127 0,-28 -39,-97 -67,-117 -64,-47 -160,-25 -203,46 -40,66 -16,156 52,198 42,25 88,25 137,0 z"
       id="path44" />
  </g>
</svg>
